<?xml version="1.0" encoding="UTF-8"?><svg version="1.2" baseProfile="tiny" viewBox="0 0 16 16" width="16px" height="16px" xmlns="http://www.w3.org/2000/svg"><g fill="#f0f"><rect y="2" width="1" height="5" x="2"/><rect width="1" height="1" x="5" y="2"/><rect x="3" y="4" width="1" height="1"/><rect width="1" height="3" x="5" y="4"/><rect width="2" height="1" x="7" y="4"/><rect width="1" height="3" x="11" y="4"/><rect height="5" x="13" y="4" width="1"/><rect height="2" x="7" y="5" width="1"/><rect x="9" y="5" width="1" height="2"/><rect x="3" y="6" width="1" height="1"/><rect width="2" height="1" x="12" y="6"/><rect width="2" height="1" x="12" y="8"/></g><g fill="red"><rect width="1" height="1" x="2" y="10"/><rect y="10" width="1" height="1" x="4"/><rect height="1" x="6" y="10" width="1"/><rect y="10" width="1" height="1" x="8"/><rect height="1" x="10" y="10" width="2"/><rect width="1" height="1" x="3" y="11"/><rect y="11" width="1" height="1" x="7"/><rect x="10" y="11" width="1" height="2"/><rect x="12" y="11" width="1" height="1"/><rect x="2" y="12" width="1" height="1"/><rect height="1" x="4" y="12" width="1"/><rect x="6" y="12" width="1" height="1"/><rect x="8" y="12" width="1" height="1"/><rect y="12" width="1" height="1" x="11"/></g><g fill="#00f"><rect width="16" height="1"/><rect height="15" y="1" width="1"/><rect height="15" x="15" y="1" width="1"/><rect x="1" y="15" width="15" height="1"/></g><g fill="#ff0"><rect x="1" y="1" width="14" height="1"/><rect y="2" width="1" height="13" x="1"/><rect height="2" x="3" y="2" width="2"/><rect x="6" y="2" width="9" height="2"/><rect x="5" y="3" width="10" height="1"/><rect height="6" x="4" y="4" width="1"/><rect width="1" height="6" x="6" y="4"/><rect width="2" height="1" x="9" y="4"/><rect x="12" y="4" width="1" height="2"/><rect width="1" height="11" x="14" y="4"/><rect x="3" y="5" width="2" height="1"/><rect x="8" y="5" width="1" height="5"/><rect width="1" height="5" x="10" y="5"/><rect x="2" y="7" width="11" height="1"/><rect y="8" width="10" height="2" x="2"/><rect width="3" height="2" x="12" y="9"/><rect y="10" width="1" height="1" x="3"/><rect x="5" y="10" width="1" height="5"/><rect height="1" x="7" y="10" width="1"/><rect x="9" y="10" width="1" height="5"/><rect width="1" height="1" x="2" y="11"/><rect y="11" width="3" height="1" x="4"/><rect width="2" height="1" x="8" y="11"/><rect x="11" y="11" width="1" height="1"/><rect width="2" height="4" x="13" y="11"/><rect y="12" width="1" height="3" x="3"/><rect x="7" y="12" width="1" height="3"/><rect width="3" height="3" x="12" y="12"/><rect x="2" y="13" width="13" height="2"/></g></svg>